<svg width="17" height="18" viewBox="0 0 17 18" fill="none" xmlns="http://www.w3.org/2000/svg">
<path fill-rule="evenodd" clip-rule="evenodd" d="M8.20865 2.00098C4.42946 2.00098 1.36914 5.06814 1.36914 8.84733C1.36914 12.6265 4.42946 15.6937 8.20865 15.6937C11.9947 15.6937 15.0619 12.6265 15.0619 8.84733C15.0619 5.06814 11.9947 2.00098 8.20865 2.00098ZM8.21616 14.3243C5.19007 14.3243 2.73908 11.8733 2.73908 8.84719C2.73908 5.82111 5.19007 3.37011 8.21616 3.37011C11.2422 3.37011 13.6932 5.82111 13.6932 8.84719C13.6932 11.8733 11.2422 14.3243 8.21616 14.3243ZM8.0242 5.42402H8.06527C8.33913 5.42402 8.55821 5.6431 8.55821 5.91695V9.0252L11.2078 10.5999C11.4474 10.7368 11.5227 11.0449 11.3789 11.2777C11.242 11.5104 10.9407 11.5789 10.708 11.442L7.86673 9.73722C7.65449 9.61399 7.53126 9.38806 7.53126 9.14843V5.91695C7.53126 5.6431 7.75034 5.42402 8.0242 5.42402Z" fill="black" fill-opacity="0.54"/>
</svg>
