<svg width="20" height="20" viewBox="0 0 20 20" fill="none" xmlns="http://www.w3.org/2000/svg">
<path fill-rule="evenodd" clip-rule="evenodd" d="M9.15898 6.66699C9.15898 8.05033 8.05065 9.16699 6.66732 9.16699C5.28398 9.16699 4.16732 8.05033 4.16732 6.66699C4.16732 5.28366 5.28398 4.16699 6.66732 4.16699C8.05065 4.16699 9.15898 5.28366 9.15898 6.66699ZM15.8257 6.66699C15.8257 8.05033 14.7173 9.16699 13.334 9.16699C11.9507 9.16699 10.834 8.05033 10.834 6.66699C10.834 5.28366 11.9507 4.16699 13.334 4.16699C14.7173 4.16699 15.8257 5.28366 15.8257 6.66699ZM6.66732 10.8337C4.72565 10.8337 0.833984 11.8087 0.833984 13.7503V15.0003C0.833984 15.4587 1.20898 15.8337 1.66732 15.8337H11.6673C12.1257 15.8337 12.5007 15.4587 12.5007 15.0003V13.7503C12.5007 11.8087 8.60898 10.8337 6.66732 10.8337ZM12.5258 10.8753C12.8174 10.8503 13.0924 10.8337 13.3341 10.8337C15.2758 10.8337 19.1674 11.8087 19.1674 13.7503V15.0003C19.1674 15.4587 18.7924 15.8337 18.3341 15.8337H14.0174C14.1091 15.5753 14.1674 15.292 14.1674 15.0003V13.7503C14.1674 12.5253 13.5091 11.6003 12.5591 10.9087C12.5566 10.9061 12.5541 10.9028 12.5513 10.8993C12.545 10.891 12.5374 10.8811 12.5258 10.8753Z" fill="#828282"/>
</svg>
