<svg width="24" height="25" viewBox="0 0 24 25" fill="none" xmlns="http://www.w3.org/2000/svg">
<path fill-rule="evenodd" clip-rule="evenodd" d="M7 15.333H10C10.55 15.333 11 15.783 11 16.333C11 16.883 10.55 17.333 10 17.333H7C4.24 17.333 2 15.093 2 12.333C2 9.57301 4.24 7.33301 7 7.33301H10C10.55 7.33301 11 7.78301 11 8.33301C11 8.88301 10.55 9.33301 10 9.33301H7C5.35 9.33301 4 10.683 4 12.333C4 13.983 5.35 15.333 7 15.333ZM17 7.33301H14C13.45 7.33301 13 7.78301 13 8.33301C13 8.88301 13.45 9.33301 14 9.33301H17C18.65 9.33301 20 10.683 20 12.333C20 13.983 18.65 15.333 17 15.333H14C13.45 15.333 13 15.783 13 16.333C13 16.883 13.45 17.333 14 17.333H17C19.76 17.333 22 15.093 22 12.333C22 9.57301 19.76 7.33301 17 7.33301ZM8 12.333C8 12.883 8.45 13.333 9 13.333H15C15.55 13.333 16 12.883 16 12.333C16 11.783 15.55 11.333 15 11.333H9C8.45 11.333 8 11.783 8 12.333Z" fill="black"/>
</svg>
