<svg width="41" height="41" viewBox="0 0 41 41" fill="none" xmlns="http://www.w3.org/2000/svg">
<path fill-rule="evenodd" clip-rule="evenodd" d="M0.5625 4.29492C0.5625 2.36193 2.1295 0.794922 4.0625 0.794922C23.9244 0.794922 40.0257 16.8962 40.0257 36.7581C40.0257 38.6911 38.4587 40.2581 36.5257 40.2581C34.5927 40.2581 33.0257 38.6911 33.0257 36.7581C33.0257 20.7622 20.0584 7.79492 4.0625 7.79492C2.1295 7.79492 0.5625 6.22792 0.5625 4.29492ZM0.5625 18.6204C0.5625 16.6874 2.1295 15.1204 4.0625 15.1204C16.1387 15.1204 25.9284 24.9101 25.9284 36.9864C25.9284 38.9193 24.3614 40.4864 22.4284 40.4864C20.4954 40.4864 18.9284 38.9193 18.9284 36.9864C18.9284 28.7761 12.2727 22.1204 4.0625 22.1204C2.1295 22.1204 0.5625 20.5534 0.5625 18.6204ZM1.84542 29.3745C7.47309 29.3745 12.0352 33.9366 12.0352 39.5643H1.71875L1.84542 29.3745Z" fill="#27AE60"/>
</svg>
