<svg width="13" height="13" viewBox="0 0 13 13" fill="none" xmlns="http://www.w3.org/2000/svg">
<mask id="path-1-outside-1" maskUnits="userSpaceOnUse" x="-0.351562" y="-0.292969" width="14" height="14" fill="black">
<rect fill="white" x="-0.351562" y="-0.292969" width="14" height="14"/>
<path fill-rule="evenodd" clip-rule="evenodd" d="M1.64844 2.45819C1.64844 2.04334 1.98474 1.70703 2.3996 1.70703C7.26687 1.70703 11.2126 5.65274 11.2126 10.52C11.2126 10.9349 10.8763 11.2712 10.4614 11.2712C10.0466 11.2712 9.71026 10.9349 9.71026 10.52C9.71026 6.48244 6.43716 3.20935 2.3996 3.20935C1.98474 3.20935 1.64844 2.87304 1.64844 2.45819ZM1.64844 5.66757C1.64844 5.25271 1.98474 4.91641 2.3996 4.91641C5.49399 4.91641 8.0025 7.42491 8.0025 10.5193C8.0025 10.9342 7.66619 11.2705 7.25134 11.2705C6.83649 11.2705 6.50018 10.9342 6.50018 10.5193C6.50018 8.25462 4.66429 6.41873 2.3996 6.41873C1.98474 6.41873 1.64844 6.08242 1.64844 5.66757ZM2.00309 8.22381C3.48976 8.22381 4.69494 9.42899 4.69494 10.9157H1.96963L2.00309 8.22381Z"/>
</mask>
<path fill-rule="evenodd" clip-rule="evenodd" d="M1.64844 2.45819C1.64844 2.04334 1.98474 1.70703 2.3996 1.70703C7.26687 1.70703 11.2126 5.65274 11.2126 10.52C11.2126 10.9349 10.8763 11.2712 10.4614 11.2712C10.0466 11.2712 9.71026 10.9349 9.71026 10.52C9.71026 6.48244 6.43716 3.20935 2.3996 3.20935C1.98474 3.20935 1.64844 2.87304 1.64844 2.45819ZM1.64844 5.66757C1.64844 5.25271 1.98474 4.91641 2.3996 4.91641C5.49399 4.91641 8.0025 7.42491 8.0025 10.5193C8.0025 10.9342 7.66619 11.2705 7.25134 11.2705C6.83649 11.2705 6.50018 10.9342 6.50018 10.5193C6.50018 8.25462 4.66429 6.41873 2.3996 6.41873C1.98474 6.41873 1.64844 6.08242 1.64844 5.66757ZM2.00309 8.22381C3.48976 8.22381 4.69494 9.42899 4.69494 10.9157H1.96963L2.00309 8.22381Z" fill="#27AE60"/>
<path d="M2.3996 3.20935L2.3996 1.70935H2.3996V3.20935ZM4.69494 10.9157V12.4157H6.19494V10.9157H4.69494ZM2.00309 8.22381V6.72381H0.521625L0.50321 8.20516L2.00309 8.22381ZM1.96963 10.9157L0.469747 10.897L0.450868 12.4157H1.96963V10.9157ZM2.3996 0.207031C1.15632 0.207031 0.148438 1.21491 0.148438 2.45819H3.14844C3.14844 2.87176 2.81317 3.20703 2.3996 3.20703V0.207031ZM12.7126 10.52C12.7126 4.82431 8.0953 0.207031 2.3996 0.207031V3.20703C6.43844 3.20703 9.71257 6.48116 9.71257 10.52H12.7126ZM10.4614 12.7712C11.7047 12.7712 12.7126 11.7633 12.7126 10.52H9.71257C9.71257 10.1064 10.0478 9.77117 10.4614 9.77117V12.7712ZM8.21026 10.52C8.21026 11.7633 9.21813 12.7712 10.4614 12.7712V9.77117C10.875 9.77117 11.2103 10.1064 11.2103 10.52H8.21026ZM2.3996 4.70935C5.60874 4.70935 8.21026 7.31087 8.21026 10.52H11.2103C11.2103 5.65402 7.26559 1.70935 2.3996 1.70935L2.3996 4.70935ZM0.148438 2.45819C0.148438 3.70147 1.15632 4.70935 2.3996 4.70935V1.70935C2.81317 1.70935 3.14844 2.04462 3.14844 2.45819H0.148438ZM2.3996 3.41641C1.15632 3.41641 0.148438 4.42429 0.148438 5.66757H3.14844C3.14844 6.08114 2.81317 6.41641 2.3996 6.41641V3.41641ZM9.5025 10.5193C9.5025 6.59649 6.32242 3.41641 2.3996 3.41641V6.41641C4.66557 6.41641 6.5025 8.25334 6.5025 10.5193H9.5025ZM7.25134 12.7705C8.49462 12.7705 9.5025 11.7626 9.5025 10.5193H6.5025C6.5025 10.1057 6.83777 9.77047 7.25134 9.77047V12.7705ZM5.00018 10.5193C5.00018 11.7626 6.00806 12.7705 7.25134 12.7705V9.77047C7.66492 9.77047 8.00018 10.1057 8.00018 10.5193H5.00018ZM2.3996 7.91873C3.83586 7.91873 5.00018 9.08305 5.00018 10.5193H8.00018C8.00018 7.42619 5.49271 4.91873 2.3996 4.91873V7.91873ZM0.148438 5.66757C0.148438 6.91085 1.15632 7.91873 2.3996 7.91873V4.91873C2.81317 4.91873 3.14844 5.25399 3.14844 5.66757H0.148438ZM6.19494 10.9157C6.19494 8.60056 4.31819 6.72381 2.00309 6.72381V9.72381C2.66133 9.72381 3.19494 10.2574 3.19494 10.9157H6.19494ZM1.96963 12.4157H4.69494V9.41566H1.96963V12.4157ZM0.50321 8.20516L0.469747 10.897L3.46952 10.9343L3.50298 8.24245L0.50321 8.20516Z" fill="#162D58" mask="url(#path-1-outside-1)"/>
</svg>
