<svg xmlns="http://www.w3.org/2000/svg" width="51" height="42" fill="none" viewBox="0 0 51 42">
    <path fill="#576ABB" d="M14.204 22.618l.756-3.283h1.042l-1.296 4.755h-.88l-1.019-3.265-1.002 3.265h-.879l-1.3-4.755h1.04l.77 3.247.976-3.247h.804l.989 3.283zm6.689 0l.756-3.283h1.041l-1.296 4.755h-.879l-1.02-3.265-1.001 3.265h-.88l-1.3-4.755h1.041l.77 3.247.975-3.247h.804l.989 3.283zm6.688 0l.756-3.283h1.042l-1.297 4.755h-.878l-1.02-3.265-1.002 3.265h-.879l-1.3-4.755h1.04l.77 3.247.976-3.247h.804l.988 3.283zm2.633.347c.199 0 .353.057.461.171.109.112.163.252.163.422 0 .167-.054.306-.163.418-.108.108-.262.162-.461.162-.19 0-.341-.054-.453-.162-.111-.109-.167-.248-.167-.418 0-.17.054-.31.163-.422.108-.114.26-.171.457-.171z"/>
    <path stroke="#BDBDBD" stroke-width="2" d="M39.053 30.218v7.765c0 1.424-1.154 2.578-2.577 2.578H3.848c-1.424 0-2.577-1.154-2.577-2.578V4.07c0-1.424 1.153-2.578 2.577-2.578h32.628c1.423 0 2.577 1.154 2.577 2.578v9.253"/>
    <path stroke="#BDBDBD" stroke-width="1.5" d="M34.435 22.124L49.4 22.124M43.369 15.664l6.002 6.002-6.002 6.003"/>
</svg>
